{
	"asset":{
		"generator":"Khronos glTF Blender I/O v3.6.27",
		"version":"2.0"
	},
	"scene":0,
	"scenes":[
		{
			"name":"Scene",
			"nodes":[
				0,
				1,
				2,
				3,
				4
			]
		}
	],
	"nodes":[
		{
			"mesh":0,
			"name":"Cube",
			"rotation":[
				0,
				0,
				0.7071066498756409,
				0.70710688829422
			],
			"scale":[
				0.10000002384185791,
				1.440000057220459,
				2.1600000858306885
			],
			"translation":[
				2.492192029953003,
				0.2973920702934265,
				0
			]
		},
		{
			"mesh":1,
			"name":"\u5186\u67f1",
			"rotation":[
				0,
				1,
				0,
				8.903524673087304e-08
			],
			"scale":[
				0.0430000014603138,
				0.10000000149011612,
				0.0430000014603138
			],
			"translation":[
				0.5821920037269592,
				0.29639261960983276,
				-1.6337100267410278
			]
		},
		{
			"mesh":2,
			"name":"\u5186\u67f1.001",
			"rotation":[
				0,
				-0.8022488951683044,
				0,
				0.5969896912574768
			],
			"scale":[
				0.0430000014603138,
				0.10000000149011612,
				0.0430000014603138
			],
			"translation":[
				0.582192063331604,
				0.29639261960983276,
				-1.9537067413330078
			]
		},
		{
			"mesh":3,
			"name":"\u5186\u67f1.002",
			"rotation":[
				0,
				-0.8022488951683044,
				0,
				0.5969896912574768
			],
			"scale":[
				0.0430000014603138,
				0.10000000149011612,
				0.0430000014603138
			],
			"translation":[
				0.5821920037269592,
				0.29639261960983276,
				-1.7937099933624268
			]
		},
		{
			"mesh":4,
			"name":"\u30c6\u30ad\u30b9\u30c8",
			"rotation":[
				0.7071068286895752,
				-2.469625769663253e-06,
				0.7071068286895752,
				2.4812268293317175e-06
			],
			"scale":[
				0.30000001192092896,
				0.30000001192092896,
				0.30000001192092896
			],
			"translation":[
				0.9980303049087524,
				0.1899999976158142,
				-2.037609577178955
			]
		}
	],
	"animations":[
		{
			"channels":[
				{
					"sampler":0,
					"target":{
						"node":0,
						"path":"translation"
					}
				},
				{
					"sampler":1,
					"target":{
						"node":0,
						"path":"rotation"
					}
				},
				{
					"sampler":2,
					"target":{
						"node":0,
						"path":"scale"
					}
				}
			],
			"name":"CubeAction.002",
			"samplers":[
				{
					"input":22,
					"interpolation":"LINEAR",
					"output":23
				},
				{
					"input":22,
					"interpolation":"LINEAR",
					"output":24
				},
				{
					"input":25,
					"interpolation":"STEP",
					"output":26
				}
			]
		},
		{
			"channels":[
				{
					"sampler":0,
					"target":{
						"node":1,
						"path":"translation"
					}
				},
				{
					"sampler":1,
					"target":{
						"node":1,
						"path":"rotation"
					}
				},
				{
					"sampler":2,
					"target":{
						"node":1,
						"path":"scale"
					}
				}
			],
			"name":"\u5186\u67f1Action.002",
			"samplers":[
				{
					"input":22,
					"interpolation":"LINEAR",
					"output":27
				},
				{
					"input":22,
					"interpolation":"LINEAR",
					"output":28
				},
				{
					"input":25,
					"interpolation":"STEP",
					"output":29
				}
			]
		},
		{
			"channels":[
				{
					"sampler":0,
					"target":{
						"node":2,
						"path":"translation"
					}
				},
				{
					"sampler":1,
					"target":{
						"node":2,
						"path":"rotation"
					}
				},
				{
					"sampler":2,
					"target":{
						"node":2,
						"path":"scale"
					}
				}
			],
			"name":"\u5186\u67f1.001Action.002",
			"samplers":[
				{
					"input":22,
					"interpolation":"LINEAR",
					"output":30
				},
				{
					"input":22,
					"interpolation":"LINEAR",
					"output":31
				},
				{
					"input":25,
					"interpolation":"STEP",
					"output":32
				}
			]
		},
		{
			"channels":[
				{
					"sampler":0,
					"target":{
						"node":3,
						"path":"translation"
					}
				},
				{
					"sampler":1,
					"target":{
						"node":3,
						"path":"rotation"
					}
				},
				{
					"sampler":2,
					"target":{
						"node":3,
						"path":"scale"
					}
				}
			],
			"name":"\u5186\u67f1.002Action.002",
			"samplers":[
				{
					"input":22,
					"interpolation":"LINEAR",
					"output":33
				},
				{
					"input":22,
					"interpolation":"LINEAR",
					"output":34
				},
				{
					"input":25,
					"interpolation":"STEP",
					"output":35
				}
			]
		},
		{
			"channels":[
				{
					"sampler":0,
					"target":{
						"node":4,
						"path":"translation"
					}
				},
				{
					"sampler":1,
					"target":{
						"node":4,
						"path":"rotation"
					}
				},
				{
					"sampler":2,
					"target":{
						"node":4,
						"path":"scale"
					}
				}
			],
			"name":"\u30c6\u30ad\u30b9\u30c8Action.003",
			"samplers":[
				{
					"input":22,
					"interpolation":"LINEAR",
					"output":36
				},
				{
					"input":22,
					"interpolation":"LINEAR",
					"output":37
				},
				{
					"input":25,
					"interpolation":"STEP",
					"output":38
				}
			]
		}
	],
	"materials":[
		{
			"doubleSided":true,
			"name":"\u80cc\u666f",
			"pbrMetallicRoughness":{
				"baseColorFactor":[
					0.012983016669750214,
					0.012983019463717937,
					0.012983030639588833,
					1
				],
				"metallicFactor":0,
				"roughnessFactor":0.5
			}
		},
		{
			"doubleSided":true,
			"name":"\u30d8\u30c3\u30c0\u30fc",
			"pbrMetallicRoughness":{
				"baseColorFactor":[
					0.04373499006032944,
					0.04091516137123108,
					0.039546236395835876,
					1
				],
				"metallicFactor":0,
				"roughnessFactor":0.5
			}
		},
		{
			"doubleSided":true,
			"name":"\u30de\u30c6\u30ea\u30a2\u30eb.002",
			"pbrMetallicRoughness":{
				"baseColorFactor":[
					0.02121853269636631,
					0.5775802731513977,
					0.05126960948109627,
					1
				],
				"metallicFactor":0,
				"roughnessFactor":0.5
			}
		},
		{
			"doubleSided":true,
			"name":"\u30de\u30c6\u30ea\u30a2\u30eb",
			"pbrMetallicRoughness":{
				"baseColorFactor":[
					1,
					0.11193210631608963,
					0.09758739173412323,
					1
				],
				"metallicFactor":0,
				"roughnessFactor":0.5
			}
		},
		{
			"doubleSided":true,
			"name":"\u30de\u30c6\u30ea\u30a2\u30eb.001",
			"pbrMetallicRoughness":{
				"baseColorFactor":[
					0.8858113884925842,
					0.9900322556495667,
					0.023095084354281425,
					1
				],
				"metallicFactor":0,
				"roughnessFactor":0.5
			}
		}
	],
	"meshes":[
		{
			"name":"Cube",
			"primitives":[
				{
					"attributes":{
						"POSITION":0,
						"NORMAL":1,
						"TEXCOORD_0":2
					},
					"indices":3,
					"material":0
				},
				{
					"attributes":{
						"POSITION":4,
						"NORMAL":5,
						"TEXCOORD_0":6
					},
					"indices":7,
					"material":1
				}
			]
		},
		{
			"name":"\u5186\u67f1",
			"primitives":[
				{
					"attributes":{
						"POSITION":8,
						"NORMAL":9,
						"TEXCOORD_0":10
					},
					"indices":11,
					"material":2
				}
			]
		},
		{
			"name":"\u5186\u67f1.001",
			"primitives":[
				{
					"attributes":{
						"POSITION":12,
						"NORMAL":13,
						"TEXCOORD_0":14
					},
					"indices":11,
					"material":3
				}
			]
		},
		{
			"name":"\u5186\u67f1.002",
			"primitives":[
				{
					"attributes":{
						"POSITION":15,
						"NORMAL":16,
						"TEXCOORD_0":17
					},
					"indices":11,
					"material":4
				}
			]
		},
		{
			"name":"\u30c6\u30ad\u30b9\u30c8",
			"primitives":[
				{
					"attributes":{
						"POSITION":18,
						"NORMAL":19,
						"TEXCOORD_0":20
					},
					"indices":21
				}
			]
		}
	],
	"accessors":[
		{
			"bufferView":0,
			"componentType":5126,
			"count":296,
			"max":[
				1,
				0.8350805640220642,
				1
			],
			"min":[
				-1,
				-1,
				-1
			],
			"type":"VEC3"
		},
		{
			"bufferView":1,
			"componentType":5126,
			"count":296,
			"type":"VEC3"
		},
		{
			"bufferView":2,
			"componentType":5126,
			"count":296,
			"type":"VEC2"
		},
		{
			"bufferView":3,
			"componentType":5123,
			"count":582,
			"type":"SCALAR"
		},
		{
			"bufferView":4,
			"componentType":5126,
			"count":296,
			"max":[
				1,
				1,
				1
			],
			"min":[
				-1,
				0.8326780796051025,
				-1
			],
			"type":"VEC3"
		},
		{
			"bufferView":5,
			"componentType":5126,
			"count":296,
			"type":"VEC3"
		},
		{
			"bufferView":6,
			"componentType":5126,
			"count":296,
			"type":"VEC2"
		},
		{
			"bufferView":7,
			"componentType":5123,
			"count":582,
			"type":"SCALAR"
		},
		{
			"bufferView":8,
			"componentType":5126,
			"count":192,
			"max":[
				1,
				1,
				1
			],
			"min":[
				-1,
				-1,
				-1
			],
			"type":"VEC3"
		},
		{
			"bufferView":9,
			"componentType":5126,
			"count":192,
			"type":"VEC3"
		},
		{
			"bufferView":10,
			"componentType":5126,
			"count":192,
			"type":"VEC2"
		},
		{
			"bufferView":11,
			"componentType":5123,
			"count":372,
			"type":"SCALAR"
		},
		{
			"bufferView":12,
			"componentType":5126,
			"count":192,
			"max":[
				1,
				1,
				1
			],
			"min":[
				-1,
				-1,
				-1
			],
			"type":"VEC3"
		},
		{
			"bufferView":13,
			"componentType":5126,
			"count":192,
			"type":"VEC3"
		},
		{
			"bufferView":14,
			"componentType":5126,
			"count":192,
			"type":"VEC2"
		},
		{
			"bufferView":15,
			"componentType":5126,
			"count":192,
			"max":[
				1,
				1,
				1
			],
			"min":[
				-1,
				-1,
				-1
			],
			"type":"VEC3"
		},
		{
			"bufferView":16,
			"componentType":5126,
			"count":192,
			"type":"VEC3"
		},
		{
			"bufferView":17,
			"componentType":5126,
			"count":192,
			"type":"VEC2"
		},
		{
			"bufferView":18,
			"componentType":5126,
			"count":2446,
			"max":[
				8.848705291748047,
				0,
				0.1619664579629898
			],
			"min":[
				0.025152437388896942,
				0,
				-0.5655487775802612
			],
			"type":"VEC3"
		},
		{
			"bufferView":19,
			"componentType":5126,
			"count":2446,
			"type":"VEC3"
		},
		{
			"bufferView":20,
			"componentType":5126,
			"count":2446,
			"type":"VEC2"
		},
		{
			"bufferView":21,
			"componentType":5123,
			"count":7278,
			"type":"SCALAR"
		},
		{
			"bufferView":22,
			"componentType":5126,
			"count":83,
			"max":[
				3.4166666666666665
			],
			"min":[
				0
			],
			"type":"SCALAR"
		},
		{
			"bufferView":23,
			"componentType":5126,
			"count":83,
			"type":"VEC3"
		},
		{
			"bufferView":24,
			"componentType":5126,
			"count":83,
			"type":"VEC4"
		},
		{
			"bufferView":25,
			"componentType":5126,
			"count":2,
			"max":[
				3.4166666666666665
			],
			"min":[
				0
			],
			"type":"SCALAR"
		},
		{
			"bufferView":26,
			"componentType":5126,
			"count":2,
			"type":"VEC3"
		},
		{
			"bufferView":27,
			"componentType":5126,
			"count":83,
			"type":"VEC3"
		},
		{
			"bufferView":28,
			"componentType":5126,
			"count":83,
			"type":"VEC4"
		},
		{
			"bufferView":29,
			"componentType":5126,
			"count":2,
			"type":"VEC3"
		},
		{
			"bufferView":30,
			"componentType":5126,
			"count":83,
			"type":"VEC3"
		},
		{
			"bufferView":31,
			"componentType":5126,
			"count":83,
			"type":"VEC4"
		},
		{
			"bufferView":32,
			"componentType":5126,
			"count":2,
			"type":"VEC3"
		},
		{
			"bufferView":33,
			"componentType":5126,
			"count":83,
			"type":"VEC3"
		},
		{
			"bufferView":34,
			"componentType":5126,
			"count":83,
			"type":"VEC4"
		},
		{
			"bufferView":35,
			"componentType":5126,
			"count":2,
			"type":"VEC3"
		},
		{
			"bufferView":36,
			"componentType":5126,
			"count":83,
			"type":"VEC3"
		},
		{
			"bufferView":37,
			"componentType":5126,
			"count":83,
			"type":"VEC4"
		},
		{
			"bufferView":38,
			"componentType":5126,
			"count":2,
			"type":"VEC3"
		}
	],
	"bufferViews":[
		{
			"buffer":0,
			"byteLength":3552,
			"byteOffset":0,
			"target":34962
		},
		{
			"buffer":0,
			"byteLength":3552,
			"byteOffset":3552,
			"target":34962
		},
		{
			"buffer":0,
			"byteLength":2368,
			"byteOffset":7104,
			"target":34962
		},
		{
			"buffer":0,
			"byteLength":1164,
			"byteOffset":9472,
			"target":34963
		},
		{
			"buffer":0,
			"byteLength":3552,
			"byteOffset":10636,
			"target":34962
		},
		{
			"buffer":0,
			"byteLength":3552,
			"byteOffset":14188,
			"target":34962
		},
		{
			"buffer":0,
			"byteLength":2368,
			"byteOffset":17740,
			"target":34962
		},
		{
			"buffer":0,
			"byteLength":1164,
			"byteOffset":20108,
			"target":34963
		},
		{
			"buffer":0,
			"byteLength":2304,
			"byteOffset":21272,
			"target":34962
		},
		{
			"buffer":0,
			"byteLength":2304,
			"byteOffset":23576,
			"target":34962
		},
		{
			"buffer":0,
			"byteLength":1536,
			"byteOffset":25880,
			"target":34962
		},
		{
			"buffer":0,
			"byteLength":744,
			"byteOffset":27416,
			"target":34963
		},
		{
			"buffer":0,
			"byteLength":2304,
			"byteOffset":28160,
			"target":34962
		},
		{
			"buffer":0,
			"byteLength":2304,
			"byteOffset":30464,
			"target":34962
		},
		{
			"buffer":0,
			"byteLength":1536,
			"byteOffset":32768,
			"target":34962
		},
		{
			"buffer":0,
			"byteLength":2304,
			"byteOffset":34304,
			"target":34962
		},
		{
			"buffer":0,
			"byteLength":2304,
			"byteOffset":36608,
			"target":34962
		},
		{
			"buffer":0,
			"byteLength":1536,
			"byteOffset":38912,
			"target":34962
		},
		{
			"buffer":0,
			"byteLength":29352,
			"byteOffset":40448,
			"target":34962
		},
		{
			"buffer":0,
			"byteLength":29352,
			"byteOffset":69800,
			"target":34962
		},
		{
			"buffer":0,
			"byteLength":19568,
			"byteOffset":99152,
			"target":34962
		},
		{
			"buffer":0,
			"byteLength":14556,
			"byteOffset":118720,
			"target":34963
		},
		{
			"buffer":0,
			"byteLength":332,
			"byteOffset":133276
		},
		{
			"buffer":0,
			"byteLength":996,
			"byteOffset":133608
		},
		{
			"buffer":0,
			"byteLength":1328,
			"byteOffset":134604
		},
		{
			"buffer":0,
			"byteLength":8,
			"byteOffset":135932
		},
		{
			"buffer":0,
			"byteLength":24,
			"byteOffset":135940
		},
		{
			"buffer":0,
			"byteLength":996,
			"byteOffset":135964
		},
		{
			"buffer":0,
			"byteLength":1328,
			"byteOffset":136960
		},
		{
			"buffer":0,
			"byteLength":24,
			"byteOffset":138288
		},
		{
			"buffer":0,
			"byteLength":996,
			"byteOffset":138312
		},
		{
			"buffer":0,
			"byteLength":1328,
			"byteOffset":139308
		},
		{
			"buffer":0,
			"byteLength":24,
			"byteOffset":140636
		},
		{
			"buffer":0,
			"byteLength":996,
			"byteOffset":140660
		},
		{
			"buffer":0,
			"byteLength":1328,
			"byteOffset":141656
		},
		{
			"buffer":0,
			"byteLength":24,
			"byteOffset":142984
		},
		{
			"buffer":0,
			"byteLength":996,
			"byteOffset":143008
		},
		{
			"buffer":0,
			"byteLength":1328,
			"byteOffset":144004
		},
		{
			"buffer":0,
			"byteLength":24,
			"byteOffset":145332
		}
	],
	"buffers":[
		{
			"byteLength":145356,
			"uri":"data:application/octet-stream;base64,"
		}
	]
}
