<svg width="70" height="70" viewBox="0 0 70 70" fill="none" xmlns="http://www.w3.org/2000/svg">
<path d="M47.5781 38.2812V35.5469H50.3125V33.3594H47.5781V30.625H44.8438V33.3594H42.1094V35.5469H44.8438V38.2812H47.5781ZM57.4219 30.625H55.2344V33.3594H51.9531V35.5469H55.2344V38.2812H57.4219V35.5469H60.1562V33.3594H57.4219V30.625ZM63.7109 17.6641C63.3828 17.0625 62.9453 16.5156 62.4531 16.2422L36.1484 1.03906C35.7109 0.765625 35.1094 0.65625 34.4531 0.65625C33.7969 0.65625 33.1953 0.820312 32.7578 1.03906L6.23437 16.2422C5.30469 16.7891 4.375 18.1562 4.375 19.1953V49.6563C4.375 50.2578 4.75781 50.9141 5.14062 51.5156L5.19531 51.5703C5.46875 52.0078 5.90625 52.3906 6.28906 52.6094L32.7031 67.8672C33.1406 68.1406 33.7969 68.25 34.4531 68.25C35.1094 68.25 35.7109 68.0859 36.1484 67.8672L62.125 52.6094C63.0547 52.0625 63.4375 50.6953 63.4375 49.6563V19.1953C63.4375 18.7578 63.6562 18.2109 63.4375 17.7734L63.7109 17.6641ZM61.4141 18.8125C61.4141 18.9766 61.25 19.0859 61.25 19.1953V49.6563C61.25 50.0938 61.1406 50.5859 61.0312 50.75L35 65.9531C34.9453 66.0078 34.7266 66.0625 34.3984 66.0625C34.0703 66.0625 33.8516 66.0078 33.7969 65.9531L7.4375 50.75C7.4375 50.75 7.38281 50.6953 7.32812 50.6953L7 50.3672C6.78125 49.9844 7.10938 49.7656 6.5625 49.7109V19.25C7.10938 18.9766 7.05469 18.3203 7.32812 18.2109L33.7422 2.95312C33.7969 2.95312 34.0703 2.84375 34.3984 2.84375C34.7266 2.84375 34.9453 2.89844 35 2.95312L61.25 18.1016L61.4688 18.5938C61.5234 18.6484 61.4141 18.7578 61.4141 18.8125ZM34.4531 47.8516C27.0703 47.8516 21.0547 41.8359 21.0547 34.4531C21.0547 27.0703 27.0703 21.0547 34.4531 21.0547C39.4297 21.0547 43.8047 23.7891 46.1016 27.8906L53.2109 23.7891C49.4922 17.2812 42.4922 12.8516 34.4531 12.8516C22.5312 12.8516 12.8516 22.5312 12.8516 34.4531C12.8516 46.375 22.5312 56.0547 34.4531 56.0547C42.4375 56.0547 49.4375 51.6797 53.1562 45.2266L46.1016 41.0703C43.8047 45.1172 39.4297 47.8516 34.4531 47.8516Z" fill="#89B8BD"/>
</svg>
