<svg width="50" height="74" viewBox="0 0 50 74" fill="none" xmlns="http://www.w3.org/2000/svg">
<path d="M0 15.1121L4.4991 67.2595L24.6868 73.0509L44.9307 67.2521L49.4349 15.1121H0ZM38.59 44.2063L37.2797 56.8218L37.2847 57.9022L24.7174 61.5298L24.7074 61.539L12.0398 57.9518L11.1828 47.9589H17.3948L17.8352 53.0104L24.7197 54.9092L24.7174 54.9178V54.8994L31.628 52.8853L32.3574 44.5013H17.9122L17.7884 43.1442L17.5063 39.8901L17.3585 38.1625H32.9071L33.4725 31.8236H9.79051L9.66617 30.3317L9.38404 26.8569L9.23628 24.9085H40.2359L40.0871 26.8298L38.59 44.2063ZM38.6569 8.41253L34.6707 3.58694H38.6569V0.705643H29.7356V3.21986L34.4137 7.62075H29.7356V10.502H38.6569V8.41253ZM28.0629 8.41253L24.2675 3.58694H28.0629V0.705643H19.6992V3.21986L24.011 7.62075H19.6992V10.502H28.0629V8.41253ZM18.0265 7.62075H13.5659V3.58694H18.0265V0.705643H10.2204V10.502H18.0265V7.62075Z" fill="#1572B6"/>
</svg>

