<svg width="78" height="74" viewBox="0 0 78 74" fill="none" xmlns="http://www.w3.org/2000/svg">
<path d="M52.407 71.8402C52.407 71.6491 52.4686 71.4579 52.407 71.2667C52.2837 71.0756 52.222 70.9481 52.0987 70.8207C51.7904 70.4384 51.4822 70.1198 51.1122 69.7374L47.4746 65.9142L50.3107 62.9193L51.8521 61.1988C52.0987 60.9439 52.407 60.4342 52.407 60.0518V59.797C52.407 59.2235 52.1604 58.9049 51.6055 58.7774L51.7288 58.8411H51.2972C50.9273 58.8411 49.8791 59.8607 49.6325 60.1793C48.7077 61.1351 48.0911 62.0272 46.858 62.983V55.4002C46.858 54.6993 46.4881 54.3807 45.8099 54.3807H45.6249C44.9467 54.3807 44.3918 54.6993 44.3918 55.4002V71.9039C44.3918 72.6049 44.9467 72.8598 45.6249 72.8598H45.8099C46.4881 72.8598 46.858 72.5412 46.858 71.9039V68.9728L48.7077 70.8207C49.2626 71.3942 49.8175 71.7765 50.3107 72.2863C50.5573 72.5412 51.0506 72.8598 51.4205 72.8598H51.6055C52.222 72.8598 52.407 72.5412 52.5303 72.0314L52.407 72.0951V71.8402ZM76.5142 58.8411H76.2676C74.9112 58.8411 73.678 59.2235 72.5683 60.0518C70.7186 61.4537 69.6705 63.3016 69.6705 65.723V71.9677C69.6705 72.6686 69.9171 72.8598 70.5953 72.8598H70.7803C71.4585 72.8598 72.1367 72.6049 72.1367 71.9677V66.1053C72.1367 64.8309 72.3833 63.6202 73.3081 62.6644C74.048 61.8997 74.9728 61.2625 76.021 61.2625C76.8225 61.2625 77.7473 61.0714 77.7473 60.0518C77.7473 59.2872 77.1924 58.8411 76.5142 58.8411ZM67.0193 62.0272C66.3411 60.8802 65.4162 59.9881 64.2448 59.4146C62.0869 58.3314 59.8056 58.2039 57.7093 59.4784L57.4011 59.6695C56.5379 60.1793 55.798 60.8165 55.2431 61.6449C53.6401 64.0663 53.4551 66.8063 54.8732 69.3551L54.9965 69.61C55.6131 70.6932 56.4146 71.5853 57.4627 72.1588C59.6823 73.4332 62.0869 73.5607 64.3064 72.2863L64.4914 72.1588C65.108 71.7765 65.2313 71.1393 64.923 70.5021C64.7997 70.2472 64.5531 70.056 64.3064 69.9286H64.1831C63.7515 69.8649 62.5801 70.3746 62.1485 70.5658C61.2853 70.6932 60.2989 70.757 59.4357 70.4384L64.1215 66.2328C64.7997 65.5956 65.5396 64.8946 66.2794 64.3211C66.896 63.8114 67.5125 63.1104 67.0193 62.2184V62.0272ZM62.7651 64.3211L57.5244 68.9728C57.3394 68.7816 57.2161 68.5267 57.0928 68.3356C56.7228 67.6984 56.4762 66.9337 56.4762 66.1691C56.4146 64.2574 57.0928 62.6644 58.7575 61.7086C59.9906 60.9439 61.347 60.8165 62.7034 61.3263C63.3816 61.5811 64.1831 62.0272 64.6147 62.6644C63.9982 63.2379 63.32 63.7477 62.7651 64.3211ZM12.9476 54.3807H12.7626C12.0844 54.3807 11.7145 54.6356 11.7145 55.3365V60.4979C10.4814 59.3509 9.00167 58.9049 7.27532 58.9049H6.78208C5.61063 58.9049 4.50083 59.096 3.4527 59.7332C1.23311 61.0714 0 63.0467 0 65.723V66.2328C0 67.4435 0.308276 68.463 0.924829 69.5463C2.21959 71.8402 4.25421 72.9872 6.78208 72.9872H7.27532C8.44677 72.9872 9.67988 72.796 10.6664 72.2225C12.886 70.8844 14.1807 68.9091 14.1807 66.2965V55.4639C14.1807 54.6356 13.6258 54.3807 12.9476 54.3807ZM11.0363 68.2719C10.1115 69.8649 8.75505 70.757 6.96705 70.757C6.22718 70.757 5.48732 70.5658 4.87077 70.1835C3.26773 69.2914 2.3429 67.8258 2.3429 65.9142C2.3429 65.2132 2.46621 64.576 2.77449 63.9388C3.63766 62.0909 5.05573 61.0714 7.0287 61.0714C8.01519 61.0714 8.87836 61.39 9.61822 61.9635C10.913 62.9193 11.6528 64.1937 11.6528 65.8505C11.7145 66.7425 11.4679 67.5072 11.0363 68.2719ZM22.5658 58.8411H22.1959C21.0244 58.8411 19.853 59.0323 18.8665 59.6695C16.6469 61.0077 15.4138 62.983 15.4138 65.6593V66.1691C15.4138 67.3798 15.7221 68.3993 16.3386 69.4825C17.6334 71.7765 19.668 72.9235 22.2576 72.9235H22.7508C23.9222 72.9235 25.0937 72.7323 26.1418 72.1588C28.3614 70.8207 29.6562 68.8453 29.6562 66.2328V65.723C29.6562 64.576 29.2863 63.6202 28.793 62.6644C27.4366 60.1156 25.2787 58.8411 22.5658 58.8411ZM26.5118 68.2719C25.5869 69.8012 24.2922 70.757 22.5042 70.757C21.7027 70.757 20.9011 70.5658 20.1613 70.1198C18.6199 69.1639 17.7567 67.8258 17.7567 65.9779C17.7567 65.277 17.88 64.6398 18.1883 64.0025C19.0515 62.1546 20.4696 61.1351 22.4425 61.1351C23.3673 61.1351 24.1689 61.39 24.9087 61.8998C26.2651 62.8556 27.0667 64.1937 27.0667 65.9142C27.1283 66.6788 26.9434 67.5072 26.5118 68.2719ZM41.6173 59.7332L41.5557 59.797C40.5075 59.096 39.3361 58.8411 38.103 58.8411H37.6097C36.4383 58.8411 35.2668 59.0323 34.2803 59.6695C32.0607 61.0077 30.8276 62.983 30.8276 65.5956V66.1053C30.8276 66.7425 30.9509 67.316 31.0743 67.9532C32.0607 71.4579 34.7119 73.4332 38.2879 73.1784C39.2744 73.1146 41.9256 72.796 41.9256 71.2667V71.0118C41.9256 70.4384 41.494 69.9286 41.0008 69.8011L40.9391 69.6737H40.5075L40.3842 69.8649C39.8293 70.1198 38.9045 70.6295 38.2879 70.6295C37.5481 70.6295 36.7465 70.6295 36.0683 70.2472C34.2803 69.3551 33.2322 67.8895 33.2322 65.8505C33.2322 65.1495 33.3555 64.5123 33.6638 63.8751C34.527 62.0909 35.945 60.9439 37.918 61.0077C38.2879 61.0077 38.9661 61.1988 39.3361 61.39C39.6443 61.5174 40.4459 62.0272 40.8158 62.0272H40.9391L41.0008 61.8998C41.5557 61.7723 41.9872 61.3263 41.9872 60.7528V60.4979C41.9872 60.243 41.8639 60.0518 41.7406 59.8607L41.6173 59.7332ZM2.95945 39.8523L3.02111 39.9797C7.89187 48.5183 16.4003 52.0867 25.7102 52.0867C43.7136 52.0867 58.5725 43.7393 65.3546 26.216C69.9171 26.4709 74.6029 25.069 76.8225 20.5448L77.3774 19.3978L76.2676 18.7606C73.6164 17.1676 70.102 16.9765 67.1426 17.8685C66.7727 14.5551 64.6764 11.6876 62.2102 9.64854L61.2237 8.82017L60.4222 9.8397C58.7575 11.8151 58.2642 15.1285 58.5109 17.6774C58.6958 19.5253 59.2507 21.4369 60.3605 22.9662C59.4973 23.476 58.5725 24.1769 57.7093 24.4955C55.983 25.1327 54.0717 25.7699 52.222 25.7699H48.0911V16.7853H40.0759V0.855042H30.8276V8.50156H15.4138V16.7853H7.39863V25.7062H0.493242L0.369932 26.662C0.0616553 30.7402 0.554897 34.6909 2.21959 38.4504L2.95945 39.8523ZM40.0759 18.6969H46.858V25.7062H40.0759V18.6969ZM32.0607 2.12946H38.8428V9.13877H32.0607V2.12946ZM32.0607 10.4132H38.8428V17.4225H32.0607V10.4132ZM32.0607 18.6969H38.8428V25.7062H32.0607V18.6969ZM24.0456 10.4132H30.8276V17.4225H24.0456V10.4132ZM24.0456 18.6969H30.8276V25.7062H24.0456V18.6969ZM24.7238 38.5779C24.7238 39.6611 23.8606 40.5532 22.8125 40.5532C21.7643 40.5532 20.9011 39.6611 20.9011 38.5779C20.9011 37.4946 21.7643 36.6025 22.8125 36.6025C23.8606 36.6662 24.7238 37.4946 24.7238 38.5779ZM16.6469 10.4132H22.8125V17.4225H16.6469V10.4132ZM16.6469 18.6969H22.8125V25.7062H16.6469V18.6969ZM8.63174 18.6969H15.4138V25.7062H8.63174V18.6969ZM10.1115 42.9109C11.0979 42.9109 12.0844 42.9109 13.0093 42.8472C15.4138 42.7197 17.5101 42.4011 19.2364 41.8914C20.6545 45.2686 23.244 48.3909 27.8682 50.6849L25.7102 50.7486C15.9687 50.6849 10.728 47.3076 6.41215 42.8472C7.70691 42.9109 8.94001 42.9109 10.1115 42.9109ZM22.8125 39.9797C23.5523 39.9797 24.1689 39.3425 24.1689 38.5779C24.1689 38.3867 24.1072 38.1955 24.0456 38.0681C23.9222 38.2593 23.7989 38.3867 23.5523 38.3867C23.244 38.3867 22.9974 38.1318 22.9974 37.8132C22.9974 37.6221 23.1207 37.4309 23.244 37.3034C23.1824 37.2397 22.9974 37.176 22.8125 37.176C22.0726 37.176 21.456 37.8132 21.456 38.5779C21.5177 39.3425 22.0726 39.9797 22.8125 39.9797Z" fill="#89B8BD"/>
</svg>
