<svg width="50" height="74" viewBox="0 0 50 74" fill="none" xmlns="http://www.w3.org/2000/svg">
<path d="M0 15.3936L4.52966 67.4462L24.8557 73.0509L45.2384 67.5521L49.7731 15.3936H0ZM40.3514 27.2439L40.0674 30.6211L39.9425 32.1812H16.0989L16.6685 39.1278H39.3756L39.2238 40.4193L37.7591 57.1542L37.6516 58.1326L24.8865 61.6834V61.6805L24.8714 61.6875L12.1136 58.2628L11.2477 48.39H17.5031L17.9461 53.2873L24.8832 55.1044L24.8865 54.969V54.9759L31.8387 53.4424L32.5646 45.4955H10.9693L9.43796 27.6451L9.28841 25.8135H40.5003L40.3514 27.2439ZM4.6977 0.705643H7.84667V3.92192H10.7279V0.705643H13.8774V10.4436H10.7279V7.18276H7.84723V10.4436H4.6977V0.705643ZM18.0184 3.93523H15.2458V0.705643H23.9416V3.93523H21.1679V10.4436H18.0184V3.93523ZM25.3217 0.705643H28.6051L30.6255 4.12742L32.6436 0.705643H35.9287V10.4436H32.7915V5.61688L30.6255 9.07918H30.5706L28.4029 5.61688V10.4436H25.3212L25.3217 0.705643ZM37.4964 0.705643H40.6465V7.22502H45.0754V10.4442H37.4964V0.705643Z" fill="#89B8BD"/>
</svg>