<svg width="70" height="74" viewBox="0 0 70 74" fill="none" xmlns="http://www.w3.org/2000/svg">
<path d="M0 0.906677V73.252H70V0.906677H0ZM37.0266 62.5524C35.9934 64.7222 34.0211 66.1477 31.7358 66.8358C28.224 67.6692 24.8651 67.1941 22.3664 65.6441C20.6942 64.5839 19.3883 62.9517 18.5018 61.0713L23.833 57.6972C23.8795 57.7174 24.0195 57.979 24.2066 58.317C24.8864 59.4942 25.4727 60.3276 26.6252 60.9128C27.7575 61.3121 30.2434 61.5673 31.2032 59.5081C31.7895 58.4605 31.603 55.0933 31.603 51.3678C31.6025 45.5136 31.6288 39.6838 31.6288 33.8961H38.1858C38.1858 40.2625 38.2194 46.2921 38.1858 52.5045C38.1998 56.3128 38.5196 59.7078 37.0266 62.5524ZM64.2281 60.6379C61.9489 68.6954 49.2414 68.957 44.1633 63.6335C43.0903 62.3805 42.4178 61.7259 41.7777 60.2796C44.4763 58.6753 44.4763 58.6753 47.1022 57.1051C48.5285 59.3709 49.8473 60.617 52.22 61.1269C55.4389 61.5332 58.6774 60.3901 57.951 56.8568C57.2046 53.9711 51.3598 53.269 47.3822 50.1831C43.344 47.3801 42.3976 40.5693 45.7162 36.6777C46.8222 35.2383 48.7082 34.1641 50.6873 33.6478L52.7526 33.3718C56.7179 33.289 59.1965 34.3713 61.0159 36.471C61.5222 37.0012 61.9354 37.573 62.7082 38.8121C60.5959 40.2035 60.6026 40.1902 57.577 42.2147C56.9307 40.7759 55.8583 39.873 54.7249 39.4806C52.9654 38.9296 50.7466 39.5287 50.2863 41.4501C50.1267 42.0422 50.1598 42.5932 50.4134 43.5713C51.1263 45.2515 53.5186 45.9819 55.6646 47.0011C61.8419 49.5904 63.9279 52.3668 64.4409 55.6715C64.9348 58.5167 64.3216 60.3624 64.2281 60.6379Z" fill="#89B8BD"/>
</svg>
