<svg width="70" height="44" viewBox="0 0 70 44" fill="none" xmlns="http://www.w3.org/2000/svg">
<path d="M16.5156 11.6797H29.6953V12.7536H17.7188V20.8924H28.9844V21.9663H17.7188V30.8964H29.8594V31.9703H16.5156V11.6797ZM30.8984 11.6797H32.3203L38.5547 20.6098L44.8438 11.6797L53.4844 0.375732L39.2656 21.5706L46.5938 31.9703H45.1172L38.5 22.475L31.8281 31.9703H30.4062L37.7891 21.5706L30.8984 11.6797ZM47.1406 12.7536V11.6797H62.1797V12.7536H55.2344V31.9703H54.0312V12.7536H47.1406ZM0 11.6797H1.47656L22.3672 43.7829L13.7266 31.9703L1.25781 13.2057L1.20312 31.9703H0V11.6797ZM62.0703 30.5573C62.3438 30.5573 62.5078 30.3877 62.5078 30.1051C62.5078 29.8225 62.3438 29.653 62.0703 29.653C61.7969 29.653 61.6328 29.8225 61.6328 30.1051C61.6328 30.3877 61.8516 30.5573 62.0703 30.5573ZM63.2734 29.3704C63.2734 30.1051 63.8203 30.6138 64.5859 30.6138C65.4062 30.6138 65.8984 30.1051 65.8984 29.2008V26.0922H65.2422V29.2008C65.2422 29.7095 65.0234 29.9356 64.5859 29.9356C64.2031 29.9356 63.9297 29.7095 63.9297 29.3139H63.2734V29.3704ZM66.7188 29.3139C66.7734 30.1051 67.375 30.6138 68.3594 30.6138C69.3438 30.6138 70 30.1051 70 29.2573C70 28.5791 69.6172 28.24 68.7969 28.0139L68.3047 27.9009C67.7578 27.7878 67.5391 27.5617 67.5391 27.2791C67.5391 26.8835 67.8672 26.6009 68.4141 26.6009C68.9062 26.6009 69.2344 26.827 69.2891 27.2791H69.9453C69.8906 26.5444 69.2891 26.0357 68.4141 26.0357C67.4844 26.0357 66.8828 26.5444 66.8828 27.3357C66.8828 27.9574 67.2109 28.353 67.9766 28.5226L68.5234 28.6356C69.0703 28.7487 69.3438 28.9747 69.3438 29.3139C69.3438 29.7095 68.9609 29.9921 68.4141 29.9921C67.8672 29.9921 67.4297 29.7095 67.375 29.3139H66.7188Z" fill="#89B8BD"/>
</svg>
