<svg width="70" height="22" viewBox="0 0 70 22" fill="none" xmlns="http://www.w3.org/2000/svg">
<path d="M64.3912 21.0017C64.2219 21.0017 64.0537 20.9558 63.9053 20.8665L62.3577 19.9201C62.1264 19.7867 62.2392 19.739 62.3157 19.7118C62.624 19.6008 62.6865 19.5748 63.0153 19.3829C63.0498 19.363 63.0947 19.3702 63.1303 19.392L64.3188 20.1217C64.3409 20.1339 64.3656 20.1403 64.3906 20.1403C64.4157 20.1403 64.4404 20.1339 64.4625 20.1217L69.0977 17.3567C69.1195 17.3434 69.1376 17.3244 69.1501 17.3016C69.1626 17.2789 69.1691 17.2531 69.169 17.2269V11.6982C69.169 11.6717 69.1624 11.6456 69.1498 11.6224C69.1372 11.5992 69.1191 11.5798 69.0971 11.566L64.4636 8.80349C64.4417 8.79102 64.4171 8.78448 64.3921 8.78448C64.3671 8.78448 64.3425 8.79102 64.3205 8.80349L59.6876 11.5666C59.6657 11.5804 59.6474 11.5996 59.6347 11.6227C59.6219 11.6457 59.615 11.6717 59.6146 11.6982V17.2269C59.6146 17.2801 59.6433 17.3302 59.6876 17.3549L60.9573 18.1136C61.6464 18.4691 62.0686 18.0502 62.0686 17.6289V12.1696C62.0686 12.093 62.1288 12.032 62.2029 12.032H62.791C62.864 12.032 62.9248 12.093 62.9248 12.1696V17.6289C62.9248 18.5789 62.4243 19.124 61.5524 19.124C61.2843 19.124 61.0735 19.124 60.4848 18.8246L59.2695 18.1015C59.1216 18.0124 58.999 17.8849 58.9137 17.7315C58.8285 17.5782 58.7836 17.4044 58.7836 17.2275V11.6988C58.7836 11.3397 58.9687 11.0047 59.2695 10.8261L63.9047 8.05748C64.0541 7.97343 64.2214 7.9294 64.3915 7.9294C64.5616 7.9294 64.7289 7.97343 64.8783 8.05748L69.5135 10.8261C69.8137 11.0053 70 11.3403 70 11.6988V17.2275C69.9997 17.4044 69.9547 17.5781 69.8693 17.7314C69.784 17.8848 69.6613 18.0123 69.5135 18.1015L64.8783 20.8671C64.7303 20.9558 64.5622 21.0022 64.3912 21.0017ZM65.8238 17.1925C63.7944 17.1925 63.3698 16.2298 63.3698 15.4229C63.3699 15.3861 63.3842 15.351 63.4093 15.3251C63.4345 15.2992 63.4686 15.2846 63.5041 15.2846H64.1033C64.1354 15.2845 64.1664 15.2963 64.1908 15.3177C64.2153 15.3392 64.2314 15.369 64.2365 15.4017C64.3264 16.0325 64.5968 16.3506 65.8238 16.3506C66.7996 16.3506 67.2155 16.1224 67.2155 15.5864C67.2155 15.2774 67.0975 15.0486 65.5803 14.8947C64.3118 14.765 63.5275 14.4759 63.5275 13.4262C63.5275 12.4599 64.3159 11.8829 65.6369 11.8829C67.122 11.8829 67.8567 12.4159 67.9496 13.559C67.951 13.5783 67.9487 13.5976 67.9426 13.6159C67.9366 13.6341 67.927 13.651 67.9145 13.6653C67.9018 13.679 67.8866 13.69 67.8698 13.6975C67.8529 13.7051 67.8348 13.7091 67.8164 13.7093H67.2143C67.1839 13.7094 67.1544 13.6987 67.1308 13.679C67.1071 13.6594 67.0906 13.6319 67.0841 13.6013C66.9392 12.9374 66.5888 12.7255 65.6363 12.7255C64.5705 12.7255 64.4467 13.11 64.4467 13.3967C64.4467 13.7449 64.5927 13.8463 66.0323 14.0431C67.4567 14.2381 68.1335 14.5133 68.1335 15.5484C68.1341 16.5944 67.292 17.1925 65.8238 17.1925ZM54.8468 13.5663C55.0296 13.4558 55.1423 13.2542 55.1423 13.0351V11.6143C55.1423 11.3958 55.0302 11.1942 54.8468 11.0838L49.9622 8.15284C49.8719 8.09856 49.7693 8.06986 49.6648 8.06965C49.5603 8.06944 49.4576 8.09772 49.3671 8.15163L44.4521 11.0844C44.362 11.1383 44.2871 11.2158 44.2351 11.309C44.183 11.4022 44.1556 11.5079 44.1554 11.6155V17.4798C44.1554 17.7001 44.2699 17.9041 44.4556 18.0134L49.3397 20.8894C49.5195 20.9962 49.7403 20.9968 49.9219 20.893L52.8758 19.1958C52.9218 19.1694 52.9602 19.1309 52.987 19.0841C53.0138 19.0374 53.0282 18.9841 53.0285 18.9298C53.0289 18.8754 53.0152 18.8219 52.989 18.7748C52.9628 18.7277 52.9249 18.6886 52.8793 18.6616L47.934 15.7283C47.8886 15.7016 47.8509 15.6629 47.8246 15.6163C47.7984 15.5696 47.7845 15.5167 47.7845 15.4627V13.6242C47.7845 13.5144 47.8411 13.4136 47.9328 13.3592L49.4728 12.4418C49.5178 12.4148 49.5689 12.4006 49.6209 12.4006C49.6729 12.4006 49.7239 12.4148 49.7689 12.4418L51.3089 13.3592C51.3541 13.386 51.3916 13.4246 51.4178 13.4711C51.4439 13.5176 51.4577 13.5704 51.4578 13.6242V15.0704C51.4575 15.1244 51.4711 15.1776 51.4972 15.2245C51.5232 15.2714 51.5608 15.3104 51.6062 15.3373C51.6515 15.3643 51.7029 15.3784 51.7553 15.3782C51.8076 15.3779 51.8589 15.3634 51.904 15.3359L54.8468 13.5663ZM49.5919 13.291C49.6094 13.281 49.629 13.2757 49.6489 13.2757C49.6688 13.2757 49.6884 13.281 49.7058 13.291L50.649 13.8542C50.684 13.8753 50.7056 13.9145 50.7056 13.9562V15.0818C50.7056 15.1241 50.684 15.1627 50.649 15.1838L49.7058 15.7464C49.6885 15.7568 49.6689 15.7622 49.6489 15.7622C49.6289 15.7622 49.6092 15.7568 49.5919 15.7464L48.6494 15.1838C48.6319 15.1736 48.6175 15.1588 48.6074 15.1408C48.5974 15.1229 48.5921 15.1026 48.5921 15.0818V13.9562C48.5921 13.9145 48.6137 13.8753 48.6494 13.8542L49.5919 13.291ZM36.8017 15.6329C36.8017 15.6872 36.7736 15.7379 36.7275 15.7657L35.0397 16.7712C35.0172 16.7849 34.9916 16.7921 34.9655 16.7921C34.9395 16.7921 34.9139 16.7849 34.8914 16.7712L33.2036 15.7657C33.1811 15.7522 33.1624 15.7328 33.1494 15.7095C33.1364 15.6862 33.1295 15.6598 33.1294 15.6329V13.6182C33.1294 13.5639 33.158 13.5126 33.2036 13.4848L34.8914 12.478C34.9139 12.4641 34.9396 12.4567 34.9658 12.4567C34.9921 12.4567 35.0178 12.4641 35.0403 12.478L36.7287 13.4848C36.751 13.4986 36.7696 13.5181 36.7825 13.5415C36.7954 13.5648 36.8022 13.5913 36.8022 13.6182L36.8017 15.6329ZM37.2578 0.715028C37.2125 0.689472 37.1616 0.676473 37.1101 0.677298C37.0585 0.678123 37.008 0.692743 36.9635 0.719735C36.9191 0.746726 36.8821 0.785167 36.8563 0.831309C36.8305 0.87745 36.8167 0.929718 36.8163 0.983014V8.77814C36.8161 8.81573 36.8065 8.85264 36.7884 8.88523C36.7703 8.91783 36.7442 8.94498 36.7129 8.96404C36.6812 8.98273 36.6454 8.99255 36.6089 8.99255C36.5725 8.99255 36.5366 8.98273 36.505 8.96404L35.2739 8.2307C35.1837 8.17705 35.0815 8.14881 34.9775 8.14881C34.8735 8.14881 34.7713 8.17705 34.6811 8.2307L29.765 11.1629C29.6747 11.2167 29.5996 11.2943 29.5475 11.3876C29.4953 11.4809 29.4678 11.5868 29.4677 11.6946V17.5607C29.4677 17.7798 29.581 17.982 29.7644 18.0925L34.6805 21.0264C34.8639 21.1363 35.0905 21.1363 35.2745 21.0264L40.1918 18.0925C40.2819 18.0384 40.3568 17.9608 40.4088 17.8675C40.4609 17.7742 40.4884 17.6684 40.4885 17.5607V2.93798C40.4885 2.71587 40.3717 2.51065 40.1842 2.40201L37.2578 0.715028ZM19.956 8.12025C20.0462 8.06631 20.1485 8.03791 20.2527 8.03791C20.3569 8.03791 20.4592 8.06631 20.5494 8.12025L25.4655 11.0518C25.6489 11.1616 25.7622 11.3644 25.7622 11.5835V17.4515C25.7622 17.6706 25.6489 17.8734 25.4655 17.9832L20.55 20.9172C20.4596 20.9709 20.3572 20.9991 20.253 20.9991C20.1488 20.9991 20.0464 20.9709 19.956 20.9172L15.0416 17.9832C14.9515 17.9291 14.8767 17.8516 14.8246 17.7583C14.7725 17.665 14.7451 17.5592 14.745 17.4515V11.5829C14.745 11.3644 14.8583 11.1616 15.0416 11.0518L19.956 8.12025ZM11.0161 11.5347C11.0161 11.3137 10.904 11.1109 10.7194 11.0017L5.80501 8.0786C5.72248 8.02915 5.62938 8.00157 5.53403 7.99833H5.48322C5.38788 8.00165 5.29481 8.02922 5.21224 8.0786L0.297259 11.0017C0.206841 11.0558 0.131779 11.1335 0.0796044 11.2271C0.0274293 11.3206 -2.37654e-05 11.4267 1.54366e-08 11.5347L0.0105122 19.4052C0.0105122 19.5151 0.0659928 19.6171 0.15885 19.6702C0.203312 19.6981 0.254313 19.7128 0.306311 19.7128C0.358308 19.7128 0.40931 19.6981 0.453772 19.6702L3.3738 17.9416C3.55834 17.8281 3.67105 17.6283 3.67105 17.4092V13.7323C3.67105 13.5126 3.78318 13.3104 3.96715 13.2005L5.21108 12.4605C5.30099 12.4059 5.40347 12.3774 5.50775 12.3778C5.60937 12.3778 5.71332 12.4044 5.80384 12.4605L7.0466 13.2005C7.23057 13.3104 7.34386 13.5126 7.34386 13.7323V17.4092C7.34386 17.6283 7.45774 17.8293 7.64112 17.9416L10.5611 19.6702C10.6062 19.6968 10.6572 19.7107 10.709 19.7106C10.7609 19.7105 10.8118 19.6963 10.8567 19.6695C10.9016 19.6427 10.9389 19.6042 10.965 19.5578C10.991 19.5114 11.0048 19.4588 11.005 19.4052L11.0161 11.5347Z" fill="#89B8BD"/>
</svg>
