<svg width="69" height="77" viewBox="0 0 69 77" fill="none" xmlns="http://www.w3.org/2000/svg">
<path d="M34.2344 38.0378C37.6775 38.0378 40.4688 35.1531 40.4688 31.5946C40.4688 28.036 37.6775 25.1513 34.2344 25.1513C30.7912 25.1513 28 28.036 28 31.5946C28 35.1531 30.7912 38.0378 34.2344 38.0378Z" fill="#89B8BD"/>
<path d="M57.9141 20.9688C56.7109 20.5167 55.4531 20.0645 54.1406 19.6689C54.4688 18.3124 54.7422 16.9559 54.9609 15.656C56.1094 8.19537 54.8516 2.93903 51.3516 0.904316C50.3125 0.282598 49.1641 0 47.8516 0C44.0234 0 39.1562 2.93903 34.2344 7.85625C29.3125 2.93903 24.4453 0 20.6172 0C19.3047 0 18.1563 0.282598 17.1172 0.904316C13.6172 2.99555 12.3594 8.25188 13.5078 15.656C13.7266 16.9559 14 18.3124 14.3281 19.6689C13.0156 20.0645 11.7578 20.4602 10.5547 20.9688C3.71875 23.6818 0 27.4121 0 31.5945C0 35.777 3.77344 39.5073 10.5547 42.2203C11.7578 42.6724 13.0156 43.1246 14.3281 43.5202C14 44.8767 13.7266 46.2332 13.5078 47.5331C12.3594 54.9937 13.6172 60.2501 17.1172 62.2848C18.1563 62.9065 19.3047 63.1891 20.6172 63.1891C24.5 63.1891 29.3672 60.2501 34.2344 55.3329C39.1562 60.2501 44.0234 63.1891 47.8516 63.1891C49.1641 63.1891 50.3125 62.9065 51.3516 62.2848C54.8516 60.1936 56.1094 54.9372 54.9609 47.5331C54.7422 46.2332 54.4688 44.8767 54.1406 43.5202C55.4531 43.1246 56.7109 42.7289 57.9141 42.2203C64.75 39.5073 68.4687 35.777 68.4687 31.5945C68.4687 27.4121 64.75 23.6818 57.9141 20.9688ZM49.8203 3.7303C52.0625 5.08678 52.8281 9.26924 51.8984 15.2038C51.7344 16.3907 51.4609 17.6342 51.1328 18.9341C48.2891 18.2559 45.2813 17.8037 42.1094 17.5211C40.25 14.8082 38.3359 12.3778 36.4219 10.1736C40.4687 6.04761 44.5703 3.22163 47.9062 3.22163C48.6172 3.22163 49.2734 3.39119 49.8203 3.7303ZM43.6953 37.2465C42.7109 39.0552 41.5625 40.8638 40.3594 42.6724C38.3359 42.842 36.3125 42.8985 34.2344 42.8985C32.1016 42.8985 30.0781 42.842 28.1094 42.6724C26.9062 40.8638 25.8125 39.0552 24.8281 37.2465C23.7891 35.3814 22.8047 33.4597 21.9297 31.5945C22.8047 29.7294 23.7891 27.8077 24.8281 25.9426C25.8125 24.1339 26.9609 22.3253 28.1641 20.5167C30.1875 20.3471 32.2109 20.2906 34.2891 20.2906C36.4219 20.2906 38.4453 20.3471 40.4141 20.5167C41.6172 22.3253 42.7109 24.1339 43.6953 25.9426C44.7344 27.8077 45.7187 29.7294 46.5937 31.5945C45.6641 33.4597 44.7344 35.3249 43.6953 37.2465ZM48.2344 35.3814C49.0547 37.3596 49.7109 39.2812 50.3125 41.2029C48.4531 41.6551 46.4844 41.9942 44.4062 42.2768C45.0625 41.2029 45.7734 40.0725 46.375 38.8856C47.0312 37.6987 47.6328 36.5118 48.2344 35.3814ZM34.2344 50.6982C32.9219 49.2287 31.6641 47.6462 30.4609 46.0071C31.7187 46.0636 32.9766 46.1201 34.2344 46.1201C35.4922 46.1201 36.75 46.0636 38.0078 46.0071C36.8047 47.6462 35.5469 49.2287 34.2344 50.6982ZM24.0625 42.2203C21.9844 41.9377 20.0156 41.5985 18.1562 41.1464C18.7578 39.2812 19.4141 37.303 20.2344 35.3249C20.8359 36.4552 21.4375 37.6422 22.0937 38.7726C22.75 40.016 23.4062 41.0899 24.0625 42.2203ZM20.2344 27.8077C19.4141 25.8295 18.7578 23.9079 18.1562 21.9862C20.0156 21.534 21.9844 21.1949 24.0625 20.9123C23.4062 21.9862 22.6953 23.1166 22.0937 24.3035C21.4375 25.4904 20.8359 26.6773 20.2344 27.8077ZM34.2344 12.4909C35.5469 13.9604 36.8047 15.5429 38.0078 17.182C36.75 17.1255 35.4922 17.069 34.2344 17.069C32.9766 17.069 31.7187 17.1255 30.4609 17.182C31.6641 15.5429 32.9219 13.9604 34.2344 12.4909ZM46.375 24.36L44.4062 20.9688C46.4844 21.2514 48.4531 21.5906 50.3125 22.0427C49.7109 23.9079 49.0547 25.8861 48.2344 27.8642C47.6328 26.6773 47.0312 25.4904 46.375 24.36ZM16.5703 15.2038C15.6406 9.26924 16.4062 5.08678 18.6484 3.7303C19.1953 3.39119 19.8516 3.22163 20.5625 3.22163C23.8437 3.22163 27.9453 5.9911 32.0469 10.1736C30.1328 12.3213 28.2187 14.8082 26.3594 17.5211C23.1875 17.8037 20.1797 18.3124 17.3359 18.9341C17.0078 17.6342 16.7891 16.3907 16.5703 15.2038ZM3.0625 31.5945C3.0625 28.9381 6.17969 26.1121 11.6484 24.0209C12.7422 23.5687 13.9453 23.1731 15.1484 22.834C16.0234 25.66 17.1172 28.6555 18.4297 31.6511C17.1172 34.6466 15.9688 37.5856 15.1484 40.4116C7.60156 38.1508 3.0625 34.7597 3.0625 31.5945ZM18.6484 59.4588C16.4062 58.1023 15.6406 53.9199 16.5703 47.9853C16.7344 46.7984 17.0078 45.5549 17.3359 44.255C20.1797 44.9332 23.1875 45.3854 26.3594 45.668C28.2187 48.3809 30.1328 50.8113 32.0469 53.0155C28 57.1415 23.8984 59.9675 20.5625 59.9675C19.8516 59.9675 19.1953 59.7979 18.6484 59.4588ZM51.8984 47.9853C52.8281 53.9199 52.0625 58.1023 49.8203 59.4588C49.2734 59.7979 48.6172 59.9675 47.9062 59.9675C44.625 59.9675 40.5234 57.198 36.4219 53.0155C38.3359 50.8678 40.25 48.3809 42.1094 45.668C45.2813 45.3854 48.2891 44.8767 51.1328 44.255C51.4609 45.5549 51.6797 46.7984 51.8984 47.9853ZM56.8203 39.1682C55.7266 39.6204 54.5234 40.016 53.3203 40.3551C52.4453 37.5291 51.3516 34.5336 50.0391 31.538C51.3516 28.5425 52.5 25.6035 53.3203 22.7775C60.8672 25.0383 65.4062 28.4294 65.4062 31.5945C65.4062 34.251 62.2344 37.077 56.8203 39.1682Z" fill="#89B8BD"/>
<path d="M1.96875 75V67H4.67188C5.29688 67 5.8099 67.1068 6.21094 67.3203C6.61198 67.5312 6.90885 67.8216 7.10156 68.1914C7.29427 68.5612 7.39063 68.9818 7.39063 69.4531C7.39063 69.9245 7.29427 70.3424 7.10156 70.707C6.90885 71.0716 6.61328 71.3581 6.21484 71.5664C5.81641 71.7721 5.30729 71.875 4.6875 71.875H2.5V71H4.65625C5.08333 71 5.42708 70.9375 5.6875 70.8125C5.95052 70.6875 6.14063 70.5104 6.25781 70.2812C6.3776 70.0495 6.4375 69.7734 6.4375 69.4531C6.4375 69.1328 6.3776 68.8529 6.25781 68.6133C6.13802 68.3737 5.94661 68.1888 5.68359 68.0586C5.42057 67.9258 5.07292 67.8594 4.64062 67.8594H2.9375V75H1.96875ZM5.73438 71.4062L7.70312 75H6.57813L4.64062 71.4062H5.73438ZM11.3311 75.125C10.7529 75.125 10.2542 74.9974 9.83496 74.7422C9.41829 74.4844 9.09668 74.125 8.87012 73.6641C8.64616 73.2005 8.53418 72.6615 8.53418 72.0469C8.53418 71.4323 8.64616 70.8906 8.87012 70.4219C9.09668 69.9505 9.41178 69.5833 9.81543 69.3203C10.2217 69.0547 10.6956 68.9219 11.2373 68.9219C11.5498 68.9219 11.8584 68.974 12.1631 69.0781C12.4678 69.1823 12.7451 69.3516 12.9951 69.5859C13.2451 69.8177 13.4443 70.125 13.5928 70.5078C13.7412 70.8906 13.8154 71.362 13.8154 71.9219V72.3125H9.19043V71.5156H12.8779C12.8779 71.1771 12.8102 70.875 12.6748 70.6094C12.542 70.3437 12.3519 70.1341 12.1045 69.9805C11.8597 69.8268 11.5706 69.75 11.2373 69.75C10.8701 69.75 10.5524 69.8411 10.2842 70.0234C10.0186 70.2031 9.81413 70.4375 9.6709 70.7266C9.52767 71.0156 9.45605 71.3255 9.45605 71.6562V72.1875C9.45605 72.6406 9.53418 73.0247 9.69043 73.3398C9.84928 73.6523 10.0693 73.8906 10.3506 74.0547C10.6318 74.2161 10.9587 74.2969 11.3311 74.2969C11.5732 74.2969 11.792 74.263 11.9873 74.1953C12.1852 74.125 12.3558 74.0208 12.499 73.8828C12.6423 73.7422 12.7529 73.5677 12.8311 73.3594L13.7217 73.6094C13.6279 73.9115 13.4704 74.1771 13.249 74.4062C13.0277 74.6328 12.7542 74.8099 12.4287 74.9375C12.1032 75.0625 11.7373 75.125 11.3311 75.125ZM16.9834 75.1406C16.6032 75.1406 16.2581 75.069 15.9482 74.9258C15.6383 74.7799 15.3923 74.5703 15.21 74.2969C15.0277 74.0208 14.9365 73.6875 14.9365 73.2969C14.9365 72.9531 15.0042 72.6745 15.1396 72.4609C15.2751 72.2448 15.4561 72.0755 15.6826 71.9531C15.9092 71.8307 16.1592 71.7396 16.4326 71.6797C16.7087 71.6172 16.986 71.5677 17.2646 71.5313C17.6292 71.4844 17.9248 71.4492 18.1514 71.4258C18.3805 71.3997 18.5472 71.3568 18.6514 71.2969C18.7581 71.237 18.8115 71.1328 18.8115 70.9844V70.9531C18.8115 70.5677 18.7061 70.2682 18.4951 70.0547C18.2868 69.8411 17.9704 69.7344 17.5459 69.7344C17.1058 69.7344 16.7607 69.8307 16.5107 70.0234C16.2607 70.2161 16.085 70.4219 15.9834 70.6406L15.1084 70.3281C15.2646 69.9635 15.473 69.6797 15.7334 69.4766C15.9964 69.2708 16.2829 69.1276 16.5928 69.0469C16.9053 68.9635 17.2126 68.9219 17.5146 68.9219C17.7074 68.9219 17.9287 68.9453 18.1787 68.9922C18.4313 69.0365 18.6748 69.1289 18.9092 69.2695C19.1462 69.4102 19.3428 69.6224 19.499 69.9062C19.6553 70.1901 19.7334 70.5703 19.7334 71.0469V75H18.8115V74.1875H18.7646C18.7021 74.3177 18.598 74.457 18.4521 74.6055C18.3063 74.7539 18.1123 74.8802 17.8701 74.9844C17.6279 75.0885 17.3324 75.1406 16.9834 75.1406ZM17.124 74.3125C17.4886 74.3125 17.7959 74.2409 18.0459 74.0977C18.2985 73.9544 18.4886 73.7695 18.6162 73.543C18.7464 73.3164 18.8115 73.0781 18.8115 72.8281V71.9844C18.7725 72.0312 18.6865 72.0742 18.5537 72.1133C18.4235 72.1497 18.2725 72.1823 18.1006 72.2109C17.9313 72.237 17.766 72.2604 17.6045 72.2812C17.4456 72.2995 17.3167 72.3151 17.2178 72.3281C16.9782 72.3594 16.7542 72.4102 16.5459 72.4805C16.3402 72.5482 16.1735 72.651 16.0459 72.7891C15.9209 72.9245 15.8584 73.1094 15.8584 73.3437C15.8584 73.6641 15.9769 73.9062 16.2139 74.0703C16.4535 74.2318 16.7568 74.3125 17.124 74.3125ZM23.8535 75.125C23.291 75.125 22.8066 74.9922 22.4004 74.7266C21.9941 74.4609 21.6816 74.0951 21.4629 73.6289C21.2441 73.1628 21.1348 72.6302 21.1348 72.0312C21.1348 71.4219 21.2467 70.8841 21.4707 70.418C21.6973 69.9492 22.0124 69.5833 22.416 69.3203C22.8223 69.0547 23.2962 68.9219 23.8379 68.9219C24.2598 68.9219 24.64 69 24.9785 69.1562C25.3171 69.3125 25.5944 69.5312 25.8105 69.8125C26.0267 70.0937 26.1608 70.4219 26.2129 70.7969H25.291C25.2207 70.5234 25.0645 70.2812 24.8223 70.0703C24.5827 69.8568 24.2598 69.75 23.8535 69.75C23.4941 69.75 23.179 69.8437 22.9082 70.0312C22.64 70.2161 22.4303 70.4779 22.2793 70.8164C22.1309 71.1523 22.0566 71.5469 22.0566 72C22.0566 72.4635 22.1296 72.8672 22.2754 73.2109C22.4238 73.5547 22.6322 73.8216 22.9004 74.0117C23.1712 74.2018 23.4889 74.2969 23.8535 74.2969C24.0931 74.2969 24.3105 74.2552 24.5059 74.1719C24.7012 74.0885 24.8665 73.9688 25.002 73.8125C25.1374 73.6562 25.2337 73.4687 25.291 73.25H26.2129C26.1608 73.6042 26.0319 73.9232 25.8262 74.207C25.623 74.4883 25.3535 74.7122 25.0176 74.8789C24.6842 75.043 24.2962 75.125 23.8535 75.125ZM30.1699 69V69.7812H27.0605V69H30.1699ZM27.9668 67.5625H28.8887V73.2812C28.8887 73.5417 28.9264 73.737 29.002 73.8672C29.0801 73.9948 29.179 74.0807 29.2988 74.125C29.4212 74.1667 29.5501 74.1875 29.6855 74.1875C29.7871 74.1875 29.8704 74.1823 29.9355 74.1719C30.0007 74.1589 30.0527 74.1484 30.0918 74.1406L30.2793 74.9687C30.2168 74.9922 30.1296 75.0156 30.0176 75.0391C29.9056 75.0651 29.7637 75.0781 29.5918 75.0781C29.3314 75.0781 29.0762 75.0221 28.8262 74.9102C28.5788 74.7982 28.373 74.6276 28.209 74.3984C28.0475 74.1693 27.9668 73.8802 27.9668 73.5312V67.5625ZM41.1191 67V75H40.1816L35.8223 68.7187H35.7441V75H34.7754V67H35.7129L40.0879 73.2969H40.166V67H41.1191ZM44.6982 75.1406C44.318 75.1406 43.973 75.069 43.6631 74.9258C43.3532 74.7799 43.1071 74.5703 42.9248 74.2969C42.7425 74.0208 42.6514 73.6875 42.6514 73.2969C42.6514 72.9531 42.7191 72.6745 42.8545 72.4609C42.9899 72.2448 43.1709 72.0755 43.3975 71.9531C43.624 71.8307 43.874 71.7396 44.1475 71.6797C44.4235 71.6172 44.7008 71.5677 44.9795 71.5313C45.3441 71.4844 45.6396 71.4492 45.8662 71.4258C46.0954 71.3997 46.262 71.3568 46.3662 71.2969C46.473 71.237 46.5264 71.1328 46.5264 70.9844V70.9531C46.5264 70.5677 46.4209 70.2682 46.21 70.0547C46.0016 69.8411 45.6852 69.7344 45.2607 69.7344C44.8206 69.7344 44.4756 69.8307 44.2256 70.0234C43.9756 70.2161 43.7998 70.4219 43.6982 70.6406L42.8232 70.3281C42.9795 69.9635 43.1878 69.6797 43.4482 69.4766C43.7113 69.2708 43.9977 69.1276 44.3076 69.0469C44.6201 68.9635 44.9274 68.9219 45.2295 68.9219C45.4222 68.9219 45.6436 68.9453 45.8936 68.9922C46.1462 69.0365 46.3896 69.1289 46.624 69.2695C46.861 69.4102 47.0576 69.6224 47.2139 69.9062C47.3701 70.1901 47.4482 70.5703 47.4482 71.0469V75H46.5264V74.1875H46.4795C46.417 74.3177 46.3128 74.457 46.167 74.6055C46.0212 74.7539 45.8271 74.8802 45.585 74.9844C45.3428 75.0885 45.0472 75.1406 44.6982 75.1406ZM44.8389 74.3125C45.2035 74.3125 45.5107 74.2409 45.7607 74.0977C46.0133 73.9544 46.2035 73.7695 46.3311 73.543C46.4613 73.3164 46.5264 73.0781 46.5264 72.8281V71.9844C46.4873 72.0312 46.4014 72.0742 46.2686 72.1133C46.1383 72.1497 45.9873 72.1823 45.8154 72.2109C45.6462 72.237 45.4808 72.2604 45.3193 72.2812C45.1605 72.2995 45.0316 72.3151 44.9326 72.3281C44.693 72.3594 44.4691 72.4102 44.2607 72.4805C44.055 72.5482 43.8883 72.651 43.7607 72.7891C43.6357 72.9245 43.5732 73.1094 43.5732 73.3437C43.5732 73.6641 43.6917 73.9062 43.9287 74.0703C44.1683 74.2318 44.4717 74.3125 44.8389 74.3125ZM51.7402 69V69.7812H48.6309V69H51.7402ZM49.5371 67.5625H50.459V73.2812C50.459 73.5417 50.4967 73.737 50.5723 73.8672C50.6504 73.9948 50.7493 74.0807 50.8691 74.125C50.9915 74.1667 51.1204 74.1875 51.2559 74.1875C51.3574 74.1875 51.4408 74.1823 51.5059 74.1719C51.571 74.1589 51.623 74.1484 51.6621 74.1406L51.8496 74.9687C51.7871 74.9922 51.6999 75.0156 51.5879 75.0391C51.4759 75.0651 51.334 75.0781 51.1621 75.0781C50.9017 75.0781 50.6465 75.0221 50.3965 74.9102C50.1491 74.7982 49.9434 74.6276 49.7793 74.3984C49.6178 74.1693 49.5371 73.8802 49.5371 73.5312V67.5625ZM53.127 75V69H54.0488V75H53.127ZM53.5957 68C53.416 68 53.2611 67.9388 53.1309 67.8164C53.0033 67.694 52.9395 67.5469 52.9395 67.375C52.9395 67.2031 53.0033 67.056 53.1309 66.9336C53.2611 66.8112 53.416 66.75 53.5957 66.75C53.7754 66.75 53.929 66.8112 54.0566 66.9336C54.1868 67.056 54.252 67.2031 54.252 67.375C54.252 67.5469 54.1868 67.694 54.0566 67.8164C53.929 67.9388 53.7754 68 53.5957 68ZM60.6436 69L58.4248 75H57.4873L55.2686 69H56.2686L57.9248 73.7812H57.9873L59.6436 69H60.6436ZM64.1611 75.125C63.583 75.125 63.0843 74.9974 62.665 74.7422C62.2484 74.4844 61.9268 74.125 61.7002 73.6641C61.4762 73.2005 61.3643 72.6615 61.3643 72.0469C61.3643 71.4323 61.4762 70.8906 61.7002 70.4219C61.9268 69.9505 62.2419 69.5833 62.6455 69.3203C63.0518 69.0547 63.5257 68.9219 64.0674 68.9219C64.3799 68.9219 64.6885 68.974 64.9932 69.0781C65.2979 69.1823 65.5752 69.3516 65.8252 69.5859C66.0752 69.8177 66.2744 70.125 66.4229 70.5078C66.5713 70.8906 66.6455 71.362 66.6455 71.9219V72.3125H62.0205V71.5156H65.708C65.708 71.1771 65.6403 70.875 65.5049 70.6094C65.3721 70.3437 65.182 70.1341 64.9346 69.9805C64.6898 69.8268 64.4007 69.75 64.0674 69.75C63.7002 69.75 63.3825 69.8411 63.1143 70.0234C62.8486 70.2031 62.6442 70.4375 62.501 70.7266C62.3577 71.0156 62.2861 71.3255 62.2861 71.6562V72.1875C62.2861 72.6406 62.3643 73.0247 62.5205 73.3398C62.6794 73.6523 62.8994 73.8906 63.1807 74.0547C63.4619 74.2161 63.7887 74.2969 64.1611 74.2969C64.4033 74.2969 64.6221 74.263 64.8174 74.1953C65.0153 74.125 65.1859 74.0208 65.3291 73.8828C65.4723 73.7422 65.583 73.5677 65.6611 73.3594L66.5518 73.6094C66.458 73.9115 66.3005 74.1771 66.0791 74.4062C65.8577 74.6328 65.5843 74.8099 65.2588 74.9375C64.9333 75.0625 64.5674 75.125 64.1611 75.125Z" fill="#89B8BD"/>
</svg>
