<svg width="70" height="74" viewBox="0 0 70 74" fill="none" xmlns="http://www.w3.org/2000/svg">
<path d="M35 43.3215C38.4432 43.3215 41.2344 40.4368 41.2344 36.8783C41.2344 33.3198 38.4432 30.435 35 30.435C31.5569 30.435 28.7656 33.3198 28.7656 36.8783C28.7656 40.4368 31.5569 43.3215 35 43.3215Z" fill="#89B8BD"/>
<path d="M58.6797 26.2526C57.4766 25.8004 56.2188 25.3483 54.9062 24.9526C55.2344 23.5961 55.5078 22.2397 55.7266 20.9397C56.875 13.4791 55.6172 8.22276 52.1172 6.18805C51.0781 5.56634 49.9297 5.28374 48.6172 5.28374C44.7891 5.28374 39.9219 8.22276 35 13.14C30.0781 8.22276 25.2109 5.28374 21.3828 5.28374C20.0703 5.28374 18.9219 5.56634 17.8828 6.18805C14.3828 8.27928 13.125 13.5356 14.2734 20.9397C14.4922 22.2397 14.7656 23.5961 15.0938 24.9526C13.7812 25.3483 12.5234 25.7439 11.3203 26.2526C4.48438 28.9655 0.765625 32.6958 0.765625 36.8783C0.765625 41.0607 4.53906 44.7911 11.3203 47.504C12.5234 47.9562 13.7812 48.4083 15.0938 48.804C14.7656 50.1604 14.4922 51.5169 14.2734 52.8169C13.125 60.2775 14.3828 65.5338 17.8828 67.5685C18.9219 68.1902 20.0703 68.4728 21.3828 68.4728C25.2656 68.4728 30.1328 65.5338 35 60.6166C39.9219 65.5338 44.7891 68.4728 48.6172 68.4728C49.9297 68.4728 51.0781 68.1902 52.1172 67.5685C55.6172 65.4773 56.875 60.2209 55.7266 52.8169C55.5078 51.5169 55.2344 50.1604 54.9062 48.804C56.2188 48.4083 57.4766 48.0127 58.6797 47.504C65.5156 44.7911 69.2344 41.0607 69.2344 36.8783C69.2344 32.6958 65.5156 28.9655 58.6797 26.2526ZM50.5859 9.01404C52.8281 10.3705 53.5938 14.553 52.6641 20.4876C52.5 21.6745 52.2266 22.9179 51.8984 24.2179C49.0547 23.5396 46.0469 23.0875 42.875 22.8049C41.0156 20.0919 39.1016 17.6616 37.1875 15.4573C41.2344 11.3314 45.3359 8.50536 48.6719 8.50536C49.3828 8.50536 50.0391 8.67492 50.5859 9.01404ZM44.4609 42.5303C43.4766 44.3389 42.3281 46.1475 41.125 47.9562C39.1016 48.1257 37.0781 48.1822 35 48.1822C32.8672 48.1822 30.8437 48.1257 28.875 47.9562C27.6719 46.1475 26.5781 44.3389 25.5937 42.5303C24.5547 40.6651 23.5703 38.7434 22.6953 36.8783C23.5703 35.0131 24.5547 33.0915 25.5937 31.2263C26.5781 29.4177 27.7266 27.609 28.9297 25.8004C30.9531 25.6309 32.9766 25.5743 35.0547 25.5743C37.1875 25.5743 39.2109 25.6309 41.1797 25.8004C42.3828 27.609 43.4766 29.4177 44.4609 31.2263C45.5 33.0915 46.4844 35.0131 47.3594 36.8783C46.4297 38.7434 45.5 40.6086 44.4609 42.5303ZM49 40.6651C49.8203 42.6433 50.4766 44.565 51.0781 46.4866C49.2188 46.9388 47.25 47.2779 45.1719 47.5605C45.8281 46.4866 46.5391 45.3563 47.1406 44.1693C47.7969 42.9824 48.3984 41.7955 49 40.6651ZM35 55.982C33.6875 54.5125 32.4297 52.9299 31.2266 51.2908C32.4844 51.3473 33.7422 51.4039 35 51.4039C36.2578 51.4039 37.5156 51.3473 38.7734 51.2908C37.5703 52.9299 36.3125 54.5125 35 55.982ZM24.8281 47.504C22.75 47.2214 20.7812 46.8823 18.9219 46.4301C19.5234 44.565 20.1797 42.5868 21 40.6086C21.6016 41.739 22.2031 42.9259 22.8594 44.0563C23.5156 45.2997 24.1719 46.3736 24.8281 47.504ZM21 33.0915C20.1797 31.1133 19.5234 29.1916 18.9219 27.2699C20.7812 26.8178 22.75 26.4786 24.8281 26.1961C24.1719 27.2699 23.4609 28.4003 22.8594 29.5872C22.2031 30.7742 21.6016 31.9611 21 33.0915ZM35 17.7746C36.3125 19.2441 37.5703 20.8267 38.7734 22.4657C37.5156 22.4092 36.2578 22.3527 35 22.3527C33.7422 22.3527 32.4844 22.4092 31.2266 22.4657C32.4297 20.8267 33.6875 19.2441 35 17.7746ZM47.1406 29.6438L45.1719 26.2526C47.25 26.5352 49.2188 26.8743 51.0781 27.3264C50.4766 29.1916 49.8203 31.1698 49 33.148C48.3984 31.9611 47.7969 30.7742 47.1406 29.6438ZM17.3359 20.4876C16.4063 14.553 17.1719 10.3705 19.4141 9.01404C19.9609 8.67492 20.6172 8.50536 21.3281 8.50536C24.6094 8.50536 28.7109 11.2748 32.8125 15.4573C30.8984 17.605 28.9844 20.0919 27.125 22.8049C23.9531 23.0875 20.9453 23.5961 18.1016 24.2179C17.7734 22.9179 17.5547 21.6745 17.3359 20.4876ZM3.82812 36.8783C3.82812 34.2219 6.94531 31.3959 12.4141 29.3046C13.5078 28.8525 14.7109 28.4568 15.9141 28.1177C16.7891 30.9437 17.8828 33.9393 19.1953 36.9348C17.8828 39.9304 16.7344 42.8694 15.9141 45.6954C8.36719 43.4346 3.82812 40.0434 3.82812 36.8783ZM19.4141 64.7425C17.1719 63.3861 16.4063 59.2036 17.3359 53.269C17.5 52.0821 17.7734 50.8387 18.1016 49.5387C20.9453 50.217 23.9531 50.6691 27.125 50.9517C28.9844 53.6647 30.8984 56.095 32.8125 58.2993C28.7656 62.4252 24.6641 65.2512 21.3281 65.2512C20.6172 65.2512 19.9609 65.0816 19.4141 64.7425ZM52.6641 53.269C53.5938 59.2036 52.8281 63.3861 50.5859 64.7425C50.0391 65.0816 49.3828 65.2512 48.6719 65.2512C45.3906 65.2512 41.2891 62.4817 37.1875 58.2993C39.1016 56.1515 41.0156 53.6647 42.875 50.9517C46.0469 50.6691 49.0547 50.1604 51.8984 49.5387C52.2266 50.8387 52.4453 52.0821 52.6641 53.269ZM57.5859 44.4519C56.4922 44.9041 55.2891 45.2997 54.0859 45.6389C53.2109 42.8129 52.1172 39.8173 50.8047 36.8218C52.1172 33.8262 53.2656 30.8872 54.0859 28.0612C61.6328 30.322 66.1719 33.7132 66.1719 36.8783C66.1719 39.5347 63 42.3607 57.5859 44.4519Z" fill="#89B8BD"/>
</svg>
