<svg width="70" height="70" viewBox="0 0 70 70" fill="none" xmlns="http://www.w3.org/2000/svg">
<path d="M7.23352 30.6655C5.30414 30.6655 4.10156 31.6378 3.62305 33.5645C4.34711 32.5948 5.19531 32.2377 6.15234 32.4833C6.69922 32.62 7.0968 33.0176 7.53211 33.4682C8.24359 34.1923 9.06391 35.0279 10.8566 35.0279C12.7832 35.0279 13.9858 34.0555 14.4643 32.1289C13.7402 33.0985 12.892 33.4556 11.935 33.2101C11.3881 33.0734 10.9933 32.6758 10.5552 32.2252C9.84375 31.5011 9.02344 30.6655 7.23352 30.6655ZM3.61047 35C1.68109 35 0.478516 35.9696 0 37.8984C0.724063 36.9266 1.57227 36.5723 2.5293 36.8178C3.07617 36.9545 3.47375 37.3521 3.90906 37.8027C4.62055 38.5268 5.44086 39.3624 7.23352 39.3624C9.16016 39.3624 10.3627 38.3901 10.8412 36.4634C10.1172 37.433 9.26898 37.7902 8.31195 37.5419C7.76508 37.4052 7.37023 37.0103 6.93219 36.5597C6.23328 35.8329 5.41297 35 3.61047 35Z" fill="#89B8BD"/>
<path d="M21.6978 34.3164H20.4395V36.7648C20.4395 37.4205 20.8622 37.4052 21.6973 37.3647V38.3496C20.002 38.5547 19.3331 38.0888 19.3331 36.7648V34.3164H18.4012V33.2631H19.3331V31.8959L20.4269 31.5695V33.2631H21.6825V34.3164H21.6978ZM26.5103 33.2631H27.6041V38.3496H26.5103V37.6102C26.1259 38.1445 25.5259 38.4738 24.733 38.4738C23.351 38.4738 22.2042 37.2963 22.2042 35.7924C22.2042 34.2759 23.351 33.1138 24.7335 33.1138C25.5259 33.1138 26.1259 33.4403 26.5109 33.9746L26.5103 33.2631ZM24.8954 37.433C25.812 37.433 26.5109 36.7495 26.5109 35.8077C26.5109 34.8633 25.812 34.1797 24.8954 34.1797C23.9816 34.1797 23.2827 34.8633 23.2827 35.8077C23.298 36.7495 23.981 37.433 24.8954 37.433ZM29.435 32.4986C29.0527 32.4986 28.7388 32.1694 28.7388 31.7997C28.7388 31.4174 29.0527 31.1035 29.435 31.1035C29.8178 31.1035 30.1339 31.4174 30.1339 31.7997C30.1465 32.1694 29.8173 32.4986 29.435 32.4986ZM28.8881 38.3496V33.2637H29.9819V38.3496H28.8881ZM31.2528 38.3496V30.9263H32.3466V38.3496H31.2528ZM39.4991 33.2637H40.6612L39.0611 38.3496H37.9799L36.9266 34.9191L35.8608 38.3496H34.7823L33.1822 33.2637H34.3437L35.3281 36.7773L36.3945 33.2631H37.4478L38.4984 36.7773L39.4991 33.2637ZM42.0131 32.498C41.6309 32.498 41.317 32.1699 41.317 31.7997C41.317 31.4174 41.6309 31.1035 42.0131 31.1035C42.3959 31.1035 42.712 31.4174 42.712 31.7997C42.7246 32.1694 42.4107 32.498 42.0131 32.498ZM41.4662 38.3496V33.2637H42.56V38.3496H41.4662ZM46.5123 33.127C47.6465 33.127 48.4668 33.9063 48.4668 35.2177V38.3496H47.373V35.3418C47.373 34.562 46.9224 34.1671 46.2388 34.1671C45.5148 34.1671 44.94 34.5898 44.94 35.6278V38.3622H43.8463V33.2784H44.94V33.9341C45.2818 33.3873 45.8287 33.127 46.5123 33.127ZM53.69 31.2277H54.7837V38.3496H53.69V37.6102C53.3072 38.1445 52.7051 38.4738 51.9127 38.4738C50.5302 38.4738 49.3834 37.2963 49.3834 35.7924C49.3834 34.2759 50.5302 33.1138 51.9127 33.1138C52.7051 33.1138 53.3072 33.4403 53.69 33.9746V31.2277ZM52.0767 37.433C52.9911 37.433 53.69 36.7495 53.69 35.8077C53.69 34.8633 52.9911 34.1797 52.0767 34.1797C51.1607 34.1797 50.4618 34.8633 50.4618 35.8077C50.4618 36.7495 51.1602 37.433 52.0767 37.433ZM58.4598 38.4863C56.9308 38.4863 55.7687 37.3116 55.7687 35.8077C55.7687 34.2885 56.9155 33.1264 58.4598 33.1264C59.4601 33.1264 60.3209 33.6459 60.731 34.4406L59.7866 34.9874C59.5689 34.5089 59.0625 34.2076 58.4473 34.2076C57.546 34.2076 56.875 34.8912 56.875 35.8077C56.875 36.7216 57.5586 37.4052 58.4473 37.4052C59.0625 37.4052 59.5536 37.0913 59.8019 36.628L60.7436 37.1596C60.3334 37.9673 59.4601 38.4863 58.4598 38.4863ZM62.5767 34.6582C62.5767 35.5879 65.3111 35.0279 65.3111 36.9141C65.3111 37.9269 64.4224 38.4863 63.3287 38.4863C62.3159 38.4863 61.5787 38.0204 61.25 37.2963L62.1945 36.7495C62.3563 37.2154 62.7665 37.4888 63.3287 37.4888C63.8198 37.4888 64.1895 37.3242 64.1895 36.9141C64.1895 36.0128 61.4551 36.5165 61.4551 34.6992C61.4551 33.7422 62.2754 33.1417 63.3134 33.1417C64.149 33.1417 64.8452 33.524 65.2023 34.1923L64.2704 34.714C64.0932 34.3164 63.7388 34.1392 63.3134 34.1392C62.9185 34.1239 62.5767 34.3033 62.5767 34.6582ZM67.2656 34.6582C67.2656 35.5879 70 35.0279 70 36.9141C70 37.9269 69.1113 38.4863 68.0176 38.4863C67.0048 38.4863 66.2676 38.0204 65.9395 37.2963L66.8834 36.7495C67.0474 37.2154 67.4576 37.4888 68.0176 37.4888C68.5087 37.4888 68.8784 37.3242 68.8784 36.9141C68.8784 36.0128 66.144 36.5165 66.144 34.6992C66.144 33.7422 66.9643 33.1417 68.005 33.1417C68.8379 33.1417 69.5341 33.524 69.8912 34.1923L68.9615 34.714C68.7821 34.3164 68.4277 34.1392 68.0045 34.1392C67.6074 34.1239 67.2656 34.3033 67.2656 34.6582Z" fill="#89B8BD"/>
</svg>
